<svg id="Layer_1" data-name="Layer 1" xmlns="http://www.w3.org/2000/svg" viewBox="0 0 122.89 40.29"><path d="M31,10.44a.34.34,0,1,0,.34-.34A.34.34,0,0,0,31,10.44Z" style="fill:#0d334c"/><polygon points="42.32 25.15 4.5 25.15 4.93 26.14 41.1 26.14 40.9 27.1 4.21 27.1 2.38 22.77 20.91 22.77 20.91 21.78 0.89 21.78 3.56 28.09 41.7 28.09 42.32 25.15" style="fill:#0d334c"/><path d="M34.38,13.37a.61.61,0,1,0-.61.62A.61.61,0,0,0,34.38,13.37Z" style="fill:#0d334c"/><path d="M27.9,17.38a.48.48,0,0,0-.95,0,.48.48,0,1,0,.95,0Z" style="fill:#0d334c"/><path d="M30.41,4.88a.39.39,0,1,0-.77,0,.39.39,0,0,0,.77,0Z" style="fill:#0d334c"/><path d="M37.19,9.79a.47.47,0,0,0-.47-.47.47.47,0,1,0,0,.94A.47.47,0,0,0,37.19,9.79Z" style="fill:#0d334c"/><path d="M30.49,10.44a.89.89,0,1,0,.89-.89A.89.89,0,0,0,30.49,10.44Zm1.23,0a.34.34,0,1,1-.34-.34A.34.34,0,0,1,31.72,10.44Z" style="fill:#0d334c"/><rect x="7.65" y="18.23" width="0.99" height="2.55" style="fill:#0d334c"/><rect x="9.6" y="18.23" width="0.99" height="2.55" style="fill:#0d334c"/><rect x="11.55" y="18.23" width="0.99" height="2.55" style="fill:#0d334c"/><path d="M25.12,6.68V5.37L30,4a.72.72,0,0,1,.73.2.73.73,0,0,1,.17.73l-1.78,4.4.4.31,1.84-4.54a1.21,1.21,0,0,0-.27-1.24,1.23,1.23,0,0,0-1.23-.33L25.12,4.86V2.48h-1V6.73a1,1,0,0,1,.53-.15A1.15,1.15,0,0,1,25.12,6.68Z" style="fill:#0d334c"/><rect x="23.07" y="1.08" width="3.19" height="0.99" style="fill:#0d334c"/><rect x="12.29" y="4.68" width="0.99" height="7.8" style="fill:#0d334c"/><rect x="14.23" y="6.61" width="0.99" height="5.88" style="fill:#0d334c"/><circle cx="24.66" cy="7.61" r="0.54" style="fill:#0d334c"/><path d="M25,33.35A1.62,1.62,0,0,0,26.57,32H42a6,6,0,0,0,6-6V23.47l-2.87-4.19a7,7,0,0,0,1.71-.54l.51-.23-.59-1.07a2.46,2.46,0,0,1-1-.27A4.12,4.12,0,0,0,44,16.75h-.52L38,8.78A1.42,1.42,0,0,0,37,8a1.38,1.38,0,0,0-1.2.3l-10.72,9V8.53a1,1,0,0,1-.46.11,1.06,1.06,0,0,1-.53-.15v4.33H20v1h4.13v8.46h1V17.94l11-9.25a.86.86,0,0,1,.77-.18.89.89,0,0,1,.63.5V9l5.33,7.79a5.87,5.87,0,0,0-1,.24l-.18.06a1.15,1.15,0,0,1-.71,0l-1.53-.56.48,1.4a.42.42,0,0,1,0,.27l-.48,1.41L41,19.06a1.16,1.16,0,0,1,.69,0l.16,0a6.7,6.7,0,0,0,2.14.33c.22,0,.44,0,.67,0l2.91,4.26v2.31A5.52,5.52,0,0,1,42,31.46H26.55A1.59,1.59,0,0,0,25,30.15a1.61,1.61,0,0,0-1.57,1.31H18a6.87,6.87,0,0,0-.91-1.11,7.61,7.61,0,0,0-2.54-1.6l-.52-.19-.34,1.17a2.29,2.29,0,0,1,.53.92,4.92,4.92,0,0,0,.39.81H10.19A1.6,1.6,0,0,0,7,31.69a2.86,2.86,0,0,0,1.11,5.49h2.65a1.59,1.59,0,0,0,1.57,1.34,1.61,1.61,0,0,0,1.58-1.34h6.9a1.61,1.61,0,0,0,1.58,1.34A1.59,1.59,0,0,0,24,37.18h5.88a8.12,8.12,0,0,0-.64,1.3L29,39l1.16.34a2.4,2.4,0,0,1,.93-.53,4.28,4.28,0,0,0,1.58-1c.23-.24.42-.46.58-.65h6.85a1.6,1.6,0,0,0,3.15,0h3.54v-.5H43.29a1.6,1.6,0,0,0-3.16,0H33.64c.14-.22.24-.41.33-.57l.09-.17a1.08,1.08,0,0,1,.51-.48l1.48-.69-1.33-.65a.43.43,0,0,1-.2-.2l-.65-1.32-.7,1.48a1,1,0,0,1-.47.5l-.14.08a6.91,6.91,0,0,0-1.74,1.28,6.32,6.32,0,0,0-.63.74H24a1.6,1.6,0,0,0-3.16,0h-6.9a1.6,1.6,0,0,0-3.16,0H8.13a2.36,2.36,0,0,1-1.05-4.47A1.6,1.6,0,0,0,10.2,32H15a2.91,2.91,0,0,0,.24.27A6.33,6.33,0,0,0,17,33.5l.17.09a1.08,1.08,0,0,1,.48.51l.69,1.48L19,34.25a.41.41,0,0,1,.2-.19l1.33-.66L19,32.71a1.32,1.32,0,0,1-.58-.62.83.83,0,0,1-.07-.13H23.4A1.6,1.6,0,0,0,25,33.35ZM44,18.42a5.9,5.9,0,0,1-1.85-.28L42,18.08h0l.2-.06A5.44,5.44,0,0,1,44,17.74a3.19,3.19,0,0,1,1.42.34l.21.09A6.24,6.24,0,0,1,44,18.42ZM25,31.14a.61.61,0,0,1,.61.61.61.61,0,0,1-.61.61.61.61,0,0,1-.61-.61A.62.62,0,0,1,25,31.14Zm16.73,5.17a.61.61,0,0,1,0,1.22.61.61,0,1,1,0-1.22Zm-10.19.33A5.43,5.43,0,0,1,33,35.54l.15-.09h0v0c0,.06-.07.12-.1.19A5.56,5.56,0,0,1,32,37.13a3.26,3.26,0,0,1-1.25.76l-.21.08A5.85,5.85,0,0,1,31.52,36.64Zm-9.11-.33a.61.61,0,0,1,0,1.22.61.61,0,1,1,0-1.22Zm-10.06,0a.61.61,0,1,1-.61.61A.61.61,0,0,1,12.35,36.31Zm-3.74-4a.6.6,0,0,1-.6-.61.61.61,0,1,1,.6.61Zm9,.36-.19-.1a5.56,5.56,0,0,1-1.48-1.09,3.26,3.26,0,0,1-.76-1.25l-.08-.21a6.16,6.16,0,0,1,1.33,1,5.43,5.43,0,0,1,1.1,1.51l.09.16h0Z" style="fill:#0d334c"/><polygon points="22.84 19.84 16.94 19.84 15.59 13.7 7.72 13.7 6.57 17.4 14.28 17.4 14.05 16.41 7.92 16.41 8.44 14.69 14.79 14.69 16.15 20.83 21.85 20.83 21.85 24.2 42.52 24.2 42.73 23.21 22.84 23.21 22.84 19.84" style="fill:#0d334c"/><polygon points="26.02 21.27 26.02 22.25 42.93 22.25 43.13 21.27 26.02 21.27" style="fill:#0d334c"/><path d="M35.43,12.48a1.81,1.81,0,0,0-1.4-.92l-.05.49a1.31,1.31,0,0,1,1.13,1.67,1.33,1.33,0,0,1-.62.79L26,19.17v.56l8.7-4.79a1.8,1.8,0,0,0,.87-1.08A1.84,1.84,0,0,0,35.43,12.48Z" style="fill:#0d334c"/><path d="M23.71,8l-6.78,6.19.13.56L24,8.4A1,1,0,0,1,23.71,8Z" style="fill:#0d334c"/><path d="M27.62,9.05l1-3.46h-.51L27.2,8.73,25.69,7.59v0a1,1,0,0,1-.47.86l1.69,1.28-1.25,4.4h.52l1.15-4.08,2.76,2.1.77-.66Z" style="fill:#0d334c"/><path d="M57,2.12l1.27,5.52.28,1.53.28-1.5,1.08-5.55H62l1.14,5.52.3,1.53.29-1.48L65,2.12h2l-2.71,9.63H62.44L61.28,6.12l-.34-1.86L60.6,6.12l-1.17,5.63H57.57L54.83,2.12Z" style="fill:#0d334c"/><path d="M70.13,11.75h-2V2.12h2Z" style="fill:#0d334c"/><path d="M72,2.12h2V10h4.81v1.73H72Z" style="fill:#0d334c"/><path d="M85.82,2.33a3.19,3.19,0,0,1,1.65,1.22,4.34,4.34,0,0,1,.68,1.56,7,7,0,0,1,.19,1.59A6.31,6.31,0,0,1,87.56,10a3.47,3.47,0,0,1-3.23,1.8H80.18V2.12h4.15A5.08,5.08,0,0,1,85.82,2.33ZM82.14,3.79v6.29H84a2,2,0,0,0,2-1.41,4.8,4.8,0,0,0,.31-1.83,4.49,4.49,0,0,0-.46-2.26A2,2,0,0,0,84,3.79Z" style="fill:#0d334c"/><path d="M58.42,15.5h2.27l3.41,9.63H61.92l-.64-2H57.73l-.65,2H55Zm-.14,6h2.47L59.53,17.7Z" style="fill:#0d334c"/><path d="M65.32,15.5h2v7.9h4.81v1.73H65.32Z" style="fill:#0d334c"/><path d="M76.25,15.5h2.28l3.41,9.63H79.75l-.63-2H75.57l-.65,2H72.81Zm-.13,6h2.47L77.37,17.7Z" style="fill:#0d334c"/><path d="M84.61,22.16a2,2,0,0,0,.37,1,2.14,2.14,0,0,0,1.71.59,3.5,3.5,0,0,0,1.18-.16,1.11,1.11,0,0,0,.86-1.11.82.82,0,0,0-.42-.74A4.49,4.49,0,0,0,87,21.28l-1-.23a6.47,6.47,0,0,1-2.11-.74,2.34,2.34,0,0,1-1-2.08,2.74,2.74,0,0,1,1-2.15,4.06,4.06,0,0,1,2.8-.86,4.31,4.31,0,0,1,2.63.81,2.89,2.89,0,0,1,1.14,2.34H88.43a1.35,1.35,0,0,0-.77-1.23,2.57,2.57,0,0,0-1.2-.25,2.31,2.31,0,0,0-1.28.32,1,1,0,0,0-.47.87.81.81,0,0,0,.47.77,5.36,5.36,0,0,0,1.28.4l1.69.4a4.24,4.24,0,0,1,1.66.7,2.34,2.34,0,0,1,.86,2,2.76,2.76,0,0,1-1,2.19,4.31,4.31,0,0,1-2.88.87,4.73,4.73,0,0,1-3-.86,2.83,2.83,0,0,1-1.09-2.36Z" style="fill:#0d334c"/><path d="M92.12,15.5h2v4l3.72-4h2.6l-4,4,4.15,5.67H98l-3-4.2-1,1v3.22h-2Z" style="fill:#0d334c"/><path d="M104.5,15.5h2.28l3.41,9.63H108l-.63-2h-3.55l-.65,2h-2.11Zm-.13,6h2.47l-1.22-3.79Z" style="fill:#0d334c"/><path d="M111.38,15.5h2.11l3.82,6.72V15.5h1.88v9.63h-2l-3.92-6.83v6.83h-1.87Z" style="fill:#0d334c"/><path d="M56.58,29.89a4.5,4.5,0,0,1,6.48.4,3.49,3.49,0,0,1,.66,1.8h-2a2.58,2.58,0,0,0-.49-1,2.19,2.19,0,0,0-3.29.25,4.37,4.37,0,0,0-.62,2.51A3.79,3.79,0,0,0,58,36.24a2.05,2.05,0,0,0,1.66.8,1.89,1.89,0,0,0,1.58-.69,3,3,0,0,0,.5-1.12h2a4.35,4.35,0,0,1-1.32,2.56,3.85,3.85,0,0,1-2.73,1,4.07,4.07,0,0,1-3.23-1.33,5.34,5.34,0,0,1-1.18-3.67A5.34,5.34,0,0,1,56.58,29.89Z" style="fill:#0d334c"/><path d="M72.74,37.66a5,5,0,0,1-6.31,0,5.2,5.2,0,0,1-1.47-4,5.09,5.09,0,0,1,1.47-4,5,5,0,0,1,6.31,0,5.12,5.12,0,0,1,1.46,4A5.23,5.23,0,0,1,72.74,37.66Zm-1.26-1.47a3.91,3.91,0,0,0,.7-2.51,3.92,3.92,0,0,0-.7-2.5,2.47,2.47,0,0,0-3.8,0,3.84,3.84,0,0,0-.72,2.5,3.85,3.85,0,0,0,.72,2.51,2.47,2.47,0,0,0,3.8,0Z" style="fill:#0d334c"/><path d="M82.12,28.88H85v9.63H83.14V32c0-.19,0-.45,0-.79v-.78l-1.82,8.08h-2l-1.81-8.08c0,.18,0,.44,0,.78v7.3H75.7V28.88h2.93l1.75,7.57Z" style="fill:#0d334c"/><path d="M93.34,34.34a3.65,3.65,0,0,1-2.41.71h-2v3.46h-2V28.88h4.14a3.33,3.33,0,0,1,2.28.75,2.88,2.88,0,0,1,.85,2.3A3,3,0,0,1,93.34,34.34Zm-1.53-3.46a1.59,1.59,0,0,0-1.07-.32H88.92v2.83h1.82A1.5,1.5,0,0,0,91.81,33,1.41,1.41,0,0,0,92.19,32,1.34,1.34,0,0,0,91.81,30.88Z" style="fill:#0d334c"/><path d="M97.57,28.88h2.28l3.4,9.63h-2.18l-.63-2H96.89l-.65,2H94.13Zm-.13,6H99.9l-1.21-3.79Z" style="fill:#0d334c"/><path d="M104.45,28.88h2.11l3.82,6.72V28.88h1.87v9.63h-2l-3.92-6.83v6.83h-1.87Z" style="fill:#0d334c"/><path d="M119.64,28.88h2.28l-3.22,6v3.61h-2V34.9l-3.33-6h2.37l2,4.2Z" style="fill:#0d334c"/></svg>